<svg xmlns="http://www.w3.org/2000/svg" xmlns:xlink="http://www.w3.org/1999/xlink" width="426" zoomAndPan="magnify" viewBox="0 0 319.5 62.999997" height="84" preserveAspectRatio="xMidYMid meet" version="1.0"><defs><g/><clipPath id="b9e2e351eb"><path d="M 30 3.914062 L 43 3.914062 L 43 49 L 30 49 Z M 30 3.914062 " clip-rule="nonzero"/></clipPath><clipPath id="38e3734af9"><path d="M 0 5 L 51 5 L 51 53.335938 L 0 53.335938 Z M 0 5 " clip-rule="nonzero"/></clipPath></defs><path fill="#000000" d="M 25.691406 26.113281 L 25.691406 50.015625 L 25.59375 50.035156 C 24.890625 50.175781 24.1875 50.289062 23.484375 50.375 L 23.507812 26.707031 L 22.160156 25.304688 L 21.941406 25.089844 L 19.808594 22.867188 L 19.628906 50.582031 L 19.535156 50.582031 C 17.59375 50.546875 15.675781 50.316406 13.78125 49.882812 L 13.78125 26.121094 L 19.839844 19.6875 L 21.949219 22.007812 L 22.167969 22.242188 Z M 25.691406 26.113281 " fill-opacity="1" fill-rule="nonzero"/><path fill="#000000" d="M 33.855469 18.359375 L 33.855469 47.011719 C 33.175781 47.386719 32.480469 47.738281 31.765625 48.0625 L 31.648438 48.113281 L 31.648438 46.777344 L 31.671875 18.957031 L 30.226562 17.453125 L 27.980469 15.109375 L 27.761719 48.199219 L 27.753906 49.515625 C 27.066406 49.710938 26.375 49.875 25.683594 50.015625 L 25.585938 50.035156 C 24.882812 50.175781 24.179688 50.289062 23.476562 50.375 L 23.378906 50.386719 C 22.9375 50.4375 22.496094 50.480469 22.054688 50.511719 L 21.9375 50.519531 L 21.9375 18.359375 L 27.996094 11.929688 L 30.21875 14.375 Z M 33.855469 18.359375 " fill-opacity="1" fill-rule="nonzero"/><g clip-path="url(#b9e2e351eb)"><path fill="#000000" d="M 42.136719 11.128906 L 42.136719 40.105469 C 41.480469 40.910156 40.785156 41.675781 40.042969 42.402344 L 39.929688 42.511719 L 39.953125 11.796875 L 36.257812 7.480469 L 36.042969 45.675781 C 35.375 46.125 34.6875 46.550781 33.976562 46.949219 L 33.859375 47.011719 C 33.175781 47.386719 32.480469 47.738281 31.765625 48.0625 L 31.648438 48.113281 C 31.21875 48.304688 30.785156 48.484375 30.34375 48.660156 L 30.332031 48.660156 L 30.222656 48.699219 L 30.222656 11.128906 L 36.28125 3.914062 Z M 42.136719 11.128906 " fill-opacity="1" fill-rule="nonzero"/></g><g clip-path="url(#38e3734af9)"><path fill="#000000" d="M 42.582031 44.882812 C 40.761719 46.761719 38.722656 48.355469 36.460938 49.664062 C 36.226562 49.804688 35.984375 49.9375 35.746094 50.066406 C 35.273438 50.324219 34.792969 50.566406 34.300781 50.796875 C 33.6875 51.089844 33.054688 51.359375 32.410156 51.609375 C 32.300781 51.648438 32.199219 51.691406 32.089844 51.726562 C 30.820312 52.203125 29.519531 52.585938 28.195312 52.878906 C 27.4375 53.042969 26.683594 53.175781 25.921875 53.28125 C 25.1875 53.378906 24.453125 53.449219 23.714844 53.488281 C 23.273438 53.515625 22.835938 53.527344 22.394531 53.53125 C 21.542969 53.542969 20.695312 53.511719 19.855469 53.441406 C 17.9375 53.285156 16.050781 52.9375 14.203125 52.402344 C 12.355469 51.867188 10.578125 51.152344 8.875 50.257812 C 7.171875 49.363281 5.574219 48.304688 4.085938 47.089844 C 2.59375 45.871094 1.242188 44.519531 0.0234375 43.027344 C 1.933594 44.972656 4.078125 46.609375 6.460938 47.941406 C 8.839844 49.273438 11.355469 50.242188 14.015625 50.855469 C 15.9375 51.300781 17.890625 51.539062 19.863281 51.574219 C 20.703125 51.589844 21.546875 51.570312 22.390625 51.511719 C 22.832031 51.476562 23.273438 51.4375 23.714844 51.386719 C 24.449219 51.296875 25.1875 51.179688 25.921875 51.035156 C 26.683594 50.882812 27.449219 50.699219 28.210938 50.480469 C 29.03125 50.246094 29.847656 49.96875 30.664062 49.65625 L 30.671875 49.65625 C 31.15625 49.46875 31.628906 49.273438 32.089844 49.0625 C 32.847656 48.722656 33.585938 48.351562 34.296875 47.953125 C 35.050781 47.535156 35.777344 47.085938 36.476562 46.605469 C 38.792969 45.023438 40.828125 43.144531 42.582031 40.960938 C 43.597656 39.699219 44.5 38.359375 45.289062 36.941406 C 46.074219 35.523438 46.734375 34.050781 47.273438 32.523438 C 47.808594 30.992188 48.210938 29.429688 48.480469 27.832031 C 48.753906 26.230469 48.886719 24.621094 48.878906 23.003906 C 48.875 21.382812 48.734375 19.773438 48.457031 18.175781 C 48.179688 16.578125 47.769531 15.015625 47.222656 13.492188 C 46.679688 11.964844 46.011719 10.492188 45.214844 9.082031 C 44.421875 7.667969 43.511719 6.332031 42.492188 5.074219 C 45.230469 7.871094 47.304688 11.097656 48.710938 14.75 C 52.855469 25.460938 50.085938 37.144531 42.582031 44.882812 Z M 42.582031 44.882812 " fill-opacity="1" fill-rule="nonzero"/></g><g fill="#000000" fill-opacity="1"><g transform="translate(62.5077, 34.353074)"><g><path d="M 10.65625 0 L 6.671875 -6.84375 L 4.03125 -6.84375 L 4.03125 0 L 1.84375 0 L 1.84375 -16.734375 L 7.25 -16.734375 C 8.507812 -16.734375 9.578125 -16.515625 10.453125 -16.078125 C 11.328125 -15.648438 11.976562 -15.066406 12.40625 -14.328125 C 12.84375 -13.585938 13.0625 -12.75 13.0625 -11.8125 C 13.0625 -10.65625 12.726562 -9.632812 12.0625 -8.75 C 11.394531 -7.875 10.398438 -7.296875 9.078125 -7.015625 L 13.265625 0 Z M 4.03125 -8.59375 L 7.25 -8.59375 C 8.4375 -8.59375 9.320312 -8.882812 9.90625 -9.46875 C 10.5 -10.050781 10.796875 -10.832031 10.796875 -11.8125 C 10.796875 -12.800781 10.503906 -13.566406 9.921875 -14.109375 C 9.335938 -14.648438 8.445312 -14.921875 7.25 -14.921875 L 4.03125 -14.921875 Z M 4.03125 -8.59375 "/></g></g></g><g fill="#000000" fill-opacity="1"><g transform="translate(77.403075, 34.353074)"><g><path d="M 4.03125 -14.953125 L 4.03125 -9.359375 L 10.125 -9.359375 L 10.125 -7.5625 L 4.03125 -7.5625 L 4.03125 -1.796875 L 10.84375 -1.796875 L 10.84375 0 L 1.84375 0 L 1.84375 -16.75 L 10.84375 -16.75 L 10.84375 -14.953125 Z M 4.03125 -14.953125 "/></g></g></g><g fill="#000000" fill-opacity="1"><g transform="translate(90.019778, 34.353074)"><g><path d="M 11.734375 -3.71875 L 4.4375 -3.71875 L 3.09375 0 L 0.796875 0 L 6.84375 -16.625 L 9.359375 -16.625 L 15.390625 0 L 13.078125 0 Z M 11.109375 -5.5 L 8.09375 -13.9375 L 5.0625 -5.5 Z M 11.109375 -5.5 "/></g></g></g><g fill="#000000" fill-opacity="1"><g transform="translate(106.498221, 34.353074)"><g><path d="M 4.03125 -1.78125 L 9.890625 -1.78125 L 9.890625 0 L 1.84375 0 L 1.84375 -16.734375 L 4.03125 -16.734375 Z M 4.03125 -1.78125 "/></g></g></g><g fill="#000000" fill-opacity="1"><g transform="translate(117.172151, 34.353074)"><g/></g></g><g fill="#000000" fill-opacity="1"><g transform="translate(64.528681, 51.358939)"><g><path d="M 11.75 -10.125 L 11.75 0 L 10.09375 0 L 10.09375 -6.9375 L 7 0 L 5.859375 0 L 2.75 -6.9375 L 2.75 0 L 1.09375 0 L 1.09375 -10.125 L 2.890625 -10.125 L 6.4375 -2.1875 L 9.96875 -10.125 Z M 11.75 -10.125 "/></g></g></g><g fill="#000000" fill-opacity="1"><g transform="translate(81.327621, 51.358939)"><g><path d="M 7.1875 -2.0625 L 2.953125 -2.0625 L 2.234375 0 L 0.5 0 L 4.125 -10.140625 L 6.046875 -10.140625 L 9.671875 0 L 7.921875 0 Z M 6.734375 -3.421875 L 5.078125 -8.125 L 3.421875 -3.421875 Z M 6.734375 -3.421875 "/></g></g></g><g fill="#000000" fill-opacity="1"><g transform="translate(95.433816, 51.358939)"><g><path d="M 9.40625 0 L 7.75 0 L 2.75 -7.5625 L 2.75 0 L 1.09375 0 L 1.09375 -10.140625 L 2.75 -10.140625 L 7.75 -2.59375 L 7.75 -10.140625 L 9.40625 -10.140625 Z M 9.40625 0 "/></g></g></g><g fill="#000000" fill-opacity="1"><g transform="translate(109.889345, 51.358939)"><g><path d="M 7.1875 -2.0625 L 2.953125 -2.0625 L 2.234375 0 L 0.5 0 L 4.125 -10.140625 L 6.046875 -10.140625 L 9.671875 0 L 7.921875 0 Z M 6.734375 -3.421875 L 5.078125 -8.125 L 3.421875 -3.421875 Z M 6.734375 -3.421875 "/></g></g></g><g fill="#000000" fill-opacity="1"><g transform="translate(123.995538, 51.358939)"><g><path d="M 8.421875 -7.203125 C 8.160156 -7.710938 7.796875 -8.09375 7.328125 -8.34375 C 6.859375 -8.601562 6.316406 -8.734375 5.703125 -8.734375 C 5.035156 -8.734375 4.4375 -8.582031 3.90625 -8.28125 C 3.382812 -7.976562 2.976562 -7.550781 2.6875 -7 C 2.394531 -6.445312 2.25 -5.804688 2.25 -5.078125 C 2.25 -4.347656 2.394531 -3.703125 2.6875 -3.140625 C 2.976562 -2.585938 3.382812 -2.160156 3.90625 -1.859375 C 4.4375 -1.554688 5.035156 -1.40625 5.703125 -1.40625 C 6.609375 -1.40625 7.34375 -1.65625 7.90625 -2.15625 C 8.46875 -2.664062 8.8125 -3.351562 8.9375 -4.21875 L 5.140625 -4.21875 L 5.140625 -5.546875 L 10.71875 -5.546875 L 10.71875 -4.25 C 10.613281 -3.46875 10.332031 -2.742188 9.875 -2.078125 C 9.425781 -1.421875 8.835938 -0.894531 8.109375 -0.5 C 7.390625 -0.101562 6.585938 0.09375 5.703125 0.09375 C 4.753906 0.09375 3.882812 -0.125 3.09375 -0.5625 C 2.3125 -1.007812 1.6875 -1.625 1.21875 -2.40625 C 0.757812 -3.195312 0.53125 -4.085938 0.53125 -5.078125 C 0.53125 -6.066406 0.757812 -6.953125 1.21875 -7.734375 C 1.6875 -8.523438 2.316406 -9.140625 3.109375 -9.578125 C 3.898438 -10.023438 4.765625 -10.25 5.703125 -10.25 C 6.785156 -10.25 7.742188 -9.984375 8.578125 -9.453125 C 9.421875 -8.929688 10.03125 -8.179688 10.40625 -7.203125 Z M 8.421875 -7.203125 "/></g></g></g><g fill="#000000" fill-opacity="1"><g transform="translate(139.207937, 51.358939)"><g><path d="M 2.75 -8.78125 L 2.75 -5.8125 L 6.25 -5.8125 L 6.25 -4.453125 L 2.75 -4.453125 L 2.75 -1.359375 L 6.6875 -1.359375 L 6.6875 0 L 1.09375 0 L 1.09375 -10.140625 L 6.6875 -10.140625 L 6.6875 -8.78125 Z M 2.75 -8.78125 "/></g></g></g><g fill="#000000" fill-opacity="1"><g transform="translate(150.796045, 51.358939)"><g><path d="M 11.75 -10.125 L 11.75 0 L 10.09375 0 L 10.09375 -6.9375 L 7 0 L 5.859375 0 L 2.75 -6.9375 L 2.75 0 L 1.09375 0 L 1.09375 -10.125 L 2.890625 -10.125 L 6.4375 -2.1875 L 9.96875 -10.125 Z M 11.75 -10.125 "/></g></g></g><g fill="#000000" fill-opacity="1"><g transform="translate(167.59499, 51.358939)"><g><path d="M 2.75 -8.78125 L 2.75 -5.8125 L 6.25 -5.8125 L 6.25 -4.453125 L 2.75 -4.453125 L 2.75 -1.359375 L 6.6875 -1.359375 L 6.6875 0 L 1.09375 0 L 1.09375 -10.140625 L 6.6875 -10.140625 L 6.6875 -8.78125 Z M 2.75 -8.78125 "/></g></g></g><g fill="#000000" fill-opacity="1"><g transform="translate(179.183098, 51.358939)"><g><path d="M 9.40625 0 L 7.75 0 L 2.75 -7.5625 L 2.75 0 L 1.09375 0 L 1.09375 -10.140625 L 2.75 -10.140625 L 7.75 -2.59375 L 7.75 -10.140625 L 9.40625 -10.140625 Z M 9.40625 0 "/></g></g></g><g fill="#000000" fill-opacity="1"><g transform="translate(193.638624, 51.358939)"><g><path d="M 7.625 -10.125 L 7.625 -8.765625 L 4.9375 -8.765625 L 4.9375 0 L 3.28125 0 L 3.28125 -8.765625 L 0.5625 -8.765625 L 0.5625 -10.125 Z M 7.625 -10.125 "/></g></g></g><g fill="#000000" fill-opacity="1"><g transform="translate(205.808955, 51.358939)"><g/></g></g><g fill="#000000" fill-opacity="1"><g transform="translate(213.55444, 51.358939)"><g><path d="M 4.421875 0.109375 C 3.742188 0.109375 3.132812 -0.0078125 2.59375 -0.25 C 2.050781 -0.488281 1.625 -0.828125 1.3125 -1.265625 C 1 -1.703125 0.84375 -2.210938 0.84375 -2.796875 L 2.625 -2.796875 C 2.65625 -2.359375 2.820312 -2 3.125 -1.71875 C 3.4375 -1.4375 3.867188 -1.296875 4.421875 -1.296875 C 4.992188 -1.296875 5.441406 -1.429688 5.765625 -1.703125 C 6.085938 -1.984375 6.25 -2.34375 6.25 -2.78125 C 6.25 -3.125 6.148438 -3.398438 5.953125 -3.609375 C 5.753906 -3.828125 5.503906 -3.992188 5.203125 -4.109375 C 4.910156 -4.222656 4.5 -4.347656 3.96875 -4.484375 C 3.3125 -4.660156 2.773438 -4.835938 2.359375 -5.015625 C 1.953125 -5.191406 1.601562 -5.46875 1.3125 -5.84375 C 1.019531 -6.226562 0.875 -6.738281 0.875 -7.375 C 0.875 -7.957031 1.019531 -8.460938 1.3125 -8.890625 C 1.601562 -9.328125 2.007812 -9.660156 2.53125 -9.890625 C 3.050781 -10.128906 3.660156 -10.25 4.359375 -10.25 C 5.335938 -10.25 6.140625 -10.003906 6.765625 -9.515625 C 7.390625 -9.023438 7.738281 -8.351562 7.8125 -7.5 L 5.96875 -7.5 C 5.9375 -7.863281 5.757812 -8.175781 5.4375 -8.4375 C 5.125 -8.707031 4.703125 -8.84375 4.171875 -8.84375 C 3.703125 -8.84375 3.316406 -8.71875 3.015625 -8.46875 C 2.710938 -8.226562 2.5625 -7.878906 2.5625 -7.421875 C 2.5625 -7.109375 2.65625 -6.851562 2.84375 -6.65625 C 3.03125 -6.457031 3.269531 -6.300781 3.5625 -6.1875 C 3.851562 -6.070312 4.253906 -5.945312 4.765625 -5.8125 C 5.429688 -5.625 5.972656 -5.4375 6.390625 -5.25 C 6.816406 -5.070312 7.175781 -4.789062 7.46875 -4.40625 C 7.769531 -4.019531 7.921875 -3.507812 7.921875 -2.875 C 7.921875 -2.351562 7.78125 -1.863281 7.5 -1.40625 C 7.226562 -0.957031 6.828125 -0.59375 6.296875 -0.3125 C 5.765625 -0.03125 5.140625 0.109375 4.421875 0.109375 Z M 4.421875 0.109375 "/></g></g></g><g fill="#000000" fill-opacity="1"><g transform="translate(226.306981, 51.358939)"><g><path d="M 8.59375 -10.125 L 5.25 -3.671875 L 5.25 0 L 3.578125 0 L 3.578125 -3.671875 L 0.21875 -10.125 L 2.0625 -10.125 L 4.40625 -5.15625 L 6.75 -10.125 Z M 8.59375 -10.125 "/></g></g></g><g fill="#000000" fill-opacity="1"><g transform="translate(239.074079, 51.358939)"><g><path d="M 4.421875 0.109375 C 3.742188 0.109375 3.132812 -0.0078125 2.59375 -0.25 C 2.050781 -0.488281 1.625 -0.828125 1.3125 -1.265625 C 1 -1.703125 0.84375 -2.210938 0.84375 -2.796875 L 2.625 -2.796875 C 2.65625 -2.359375 2.820312 -2 3.125 -1.71875 C 3.4375 -1.4375 3.867188 -1.296875 4.421875 -1.296875 C 4.992188 -1.296875 5.441406 -1.429688 5.765625 -1.703125 C 6.085938 -1.984375 6.25 -2.34375 6.25 -2.78125 C 6.25 -3.125 6.148438 -3.398438 5.953125 -3.609375 C 5.753906 -3.828125 5.503906 -3.992188 5.203125 -4.109375 C 4.910156 -4.222656 4.5 -4.347656 3.96875 -4.484375 C 3.3125 -4.660156 2.773438 -4.835938 2.359375 -5.015625 C 1.953125 -5.191406 1.601562 -5.46875 1.3125 -5.84375 C 1.019531 -6.226562 0.875 -6.738281 0.875 -7.375 C 0.875 -7.957031 1.019531 -8.460938 1.3125 -8.890625 C 1.601562 -9.328125 2.007812 -9.660156 2.53125 -9.890625 C 3.050781 -10.128906 3.660156 -10.25 4.359375 -10.25 C 5.335938 -10.25 6.140625 -10.003906 6.765625 -9.515625 C 7.390625 -9.023438 7.738281 -8.351562 7.8125 -7.5 L 5.96875 -7.5 C 5.9375 -7.863281 5.757812 -8.175781 5.4375 -8.4375 C 5.125 -8.707031 4.703125 -8.84375 4.171875 -8.84375 C 3.703125 -8.84375 3.316406 -8.71875 3.015625 -8.46875 C 2.710938 -8.226562 2.5625 -7.878906 2.5625 -7.421875 C 2.5625 -7.109375 2.65625 -6.851562 2.84375 -6.65625 C 3.03125 -6.457031 3.269531 -6.300781 3.5625 -6.1875 C 3.851562 -6.070312 4.253906 -5.945312 4.765625 -5.8125 C 5.429688 -5.625 5.972656 -5.4375 6.390625 -5.25 C 6.816406 -5.070312 7.175781 -4.789062 7.46875 -4.40625 C 7.769531 -4.019531 7.921875 -3.507812 7.921875 -2.875 C 7.921875 -2.351562 7.78125 -1.863281 7.5 -1.40625 C 7.226562 -0.957031 6.828125 -0.59375 6.296875 -0.3125 C 5.765625 -0.03125 5.140625 0.109375 4.421875 0.109375 Z M 4.421875 0.109375 "/></g></g></g><g fill="#000000" fill-opacity="1"><g transform="translate(251.826621, 51.358939)"><g><path d="M 7.625 -10.125 L 7.625 -8.765625 L 4.9375 -8.765625 L 4.9375 0 L 3.28125 0 L 3.28125 -8.765625 L 0.5625 -8.765625 L 0.5625 -10.125 Z M 7.625 -10.125 "/></g></g></g><g fill="#000000" fill-opacity="1"><g transform="translate(263.996963, 51.358939)"><g><path d="M 2.75 -8.78125 L 2.75 -5.8125 L 6.25 -5.8125 L 6.25 -4.453125 L 2.75 -4.453125 L 2.75 -1.359375 L 6.6875 -1.359375 L 6.6875 0 L 1.09375 0 L 1.09375 -10.140625 L 6.6875 -10.140625 L 6.6875 -8.78125 Z M 2.75 -8.78125 "/></g></g></g><g fill="#000000" fill-opacity="1"><g transform="translate(275.585082, 51.358939)"><g><path d="M 11.75 -10.125 L 11.75 0 L 10.09375 0 L 10.09375 -6.9375 L 7 0 L 5.859375 0 L 2.75 -6.9375 L 2.75 0 L 1.09375 0 L 1.09375 -10.125 L 2.890625 -10.125 L 6.4375 -2.1875 L 9.96875 -10.125 Z M 11.75 -10.125 "/></g></g></g><g fill="#000000" fill-opacity="1"><g transform="translate(122.779376, 32.974175)"><g><path d="M 11.390625 -16.046875 L 11.390625 -13.078125 L 5.609375 -13.078125 L 5.609375 -9.640625 L 10.71875 -9.640625 L 10.71875 -6.671875 L 5.609375 -6.671875 L 5.609375 -2.96875 L 11.390625 -2.96875 L 11.390625 0 L 1.703125 0 L 1.703125 -16.046875 Z M 11.390625 -16.046875 "/></g></g></g><g fill="#000000" fill-opacity="1"><g transform="translate(136.113129, 32.974175)"><g><path d="M 7.125 -13.15625 C 6.644531 -13.15625 6.25 -13.023438 5.9375 -12.765625 C 5.625 -12.503906 5.46875 -12.128906 5.46875 -11.640625 C 5.46875 -11.160156 5.613281 -10.769531 5.90625 -10.46875 C 6.195312 -10.175781 6.570312 -9.945312 7.03125 -9.78125 C 7.5 -9.625 8.015625 -9.472656 8.578125 -9.328125 C 9.148438 -9.191406 9.71875 -9.019531 10.28125 -8.8125 C 10.84375 -8.601562 11.351562 -8.347656 11.8125 -8.046875 C 12.28125 -7.742188 12.65625 -7.3125 12.9375 -6.75 C 13.226562 -6.195312 13.375 -5.535156 13.375 -4.765625 C 13.375 -3.410156 12.820312 -2.25 11.71875 -1.28125 C 10.625 -0.320312 9.175781 0.15625 7.375 0.15625 C 5.570312 0.15625 4.117188 -0.273438 3.015625 -1.140625 C 1.921875 -2.003906 1.375 -3.234375 1.375 -4.828125 L 5.515625 -4.828125 C 5.617188 -3.554688 6.273438 -2.921875 7.484375 -2.921875 C 8.046875 -2.921875 8.484375 -3.066406 8.796875 -3.359375 C 9.117188 -3.660156 9.28125 -4.035156 9.28125 -4.484375 C 9.28125 -4.941406 9.132812 -5.316406 8.84375 -5.609375 C 8.550781 -5.898438 8.171875 -6.128906 7.703125 -6.296875 C 7.242188 -6.460938 6.726562 -6.613281 6.15625 -6.75 C 5.59375 -6.894531 5.03125 -7.070312 4.46875 -7.28125 C 3.90625 -7.5 3.390625 -7.753906 2.921875 -8.046875 C 2.460938 -8.347656 2.085938 -8.773438 1.796875 -9.328125 C 1.515625 -9.890625 1.375 -10.550781 1.375 -11.3125 C 1.375 -12.800781 1.925781 -13.992188 3.03125 -14.890625 C 4.144531 -15.785156 5.5625 -16.234375 7.28125 -16.234375 C 9.007812 -16.234375 10.40625 -15.84375 11.46875 -15.0625 C 12.53125 -14.28125 13.082031 -13.046875 13.125 -11.359375 L 8.890625 -11.359375 C 8.828125 -11.929688 8.640625 -12.375 8.328125 -12.6875 C 8.015625 -13 7.613281 -13.15625 7.125 -13.15625 Z M 7.125 -13.15625 "/></g></g></g><g fill="#000000" fill-opacity="1"><g transform="translate(151.156311, 32.974175)"><g><path d="M 0.609375 -13.046875 L 0.609375 -16 L 13.25 -16 L 13.25 -13.046875 L 8.875 -13.046875 L 8.875 0 L 4.96875 0 L 4.96875 -13.046875 Z M 0.609375 -13.046875 "/></g></g></g><g fill="#000000" fill-opacity="1"><g transform="translate(165.310591, 32.974175)"><g><path d="M 11.875 0 L 10.984375 -2.6875 L 5.25 -2.6875 L 4.359375 0 L 0.203125 0 L 5.765625 -16.046875 L 10.515625 -16.046875 L 16.046875 0 Z M 6.21875 -5.65625 L 10.015625 -5.65625 L 8.109375 -11.359375 Z M 6.21875 -5.65625 "/></g></g></g><g fill="#000000" fill-opacity="1"><g transform="translate(181.85808, 32.974175)"><g><path d="M 0.609375 -13.046875 L 0.609375 -16 L 13.25 -16 L 13.25 -13.046875 L 8.875 -13.046875 L 8.875 0 L 4.96875 0 L 4.96875 -13.046875 Z M 0.609375 -13.046875 "/></g></g></g><g fill="#000000" fill-opacity="1"><g transform="translate(196.01236, 32.974175)"><g><path d="M 11.390625 -16.046875 L 11.390625 -13.078125 L 5.609375 -13.078125 L 5.609375 -9.640625 L 10.71875 -9.640625 L 10.71875 -6.671875 L 5.609375 -6.671875 L 5.609375 -2.96875 L 11.390625 -2.96875 L 11.390625 0 L 1.703125 0 L 1.703125 -16.046875 Z M 11.390625 -16.046875 "/></g></g></g></svg>